<?xml version="1.0" encoding="UTF-8" standalone="no"?>
<!-- Modified version of original mobile Facebook icon: https://m.facebook.com/icon.svg
     Fill color is taken from desktop Facebook icon -->
<!DOCTYPE svg PUBLIC "-//W3C//DTD SVG 1.1//EN" "http://www.w3.org/Graphics/SVG/1.1/DTD/svg11.dtd">
<svg version="1.1" id="Layer_1" xmlns="http://www.w3.org/2000/svg" xmlns:xlink="http://www.w3.org/1999/xlink" x="0px" y="0px"
	 viewBox="0 0 216 216" enable-background="new 0 0 216 216" xml:space="preserve">
	<rect x="75" y="0" width="120" height="216" style="fill: white;" />
<!-- Original path:
<path id="White_2_" fill="#000000" d="M204.1,0H11.9C5.3,0,0,5.3,0,11.9v192.2c0,6.6,5.3,11.9,11.9,11.9h103.5v-83.6H87.2V99.8h28.1
	v-24c0-27.9,17-43.1,41.9-43.1c11.9,0,22.2,0.9,25.2,1.3v29.2l-17.3,0c-13.5,0-16.2,6.4-16.2,15.9v20.8h32.3l-4.2,32.6H149V216h55
	c6.6,0,11.9-5.3,11.9-11.9V11.9C216,5.3,210.7,0,204.1,0z"/>
-->
<path id="White_2_" fill="#4862A3" d="M 201,0 15,0 C 8.4,0 0,8.4 0,15 l 0,186 c 0,6.6 8.4,15 15,15 l 100.4,0 0,-83.6 -28.2,0 0,-32.6 28.1,0 0,-24 c 0,-27.9 17,-43.1 41.9,-43.1 11.9,0 22.2,0.9 25.2,1.3 l 0,29.2 -17.3,0 c -13.5,0 -16.2,6.4 -16.2,15.9 l 0,20.8 32.3,0 -4.2,32.6 -28,0 0,83.5 52,0 c 6.6,0 15,-8.4 15,-15 l 0,-186 c 0.1,-6.6 -8.4,-15 -15,-15 z" />
</svg>
